<?xml version="1.0" standalone="no"?>
<!DOCTYPE svg PUBLIC "-//W3C//DTD SVG 20010904//EN"
 "http://www.w3.org/TR/2001/REC-SVG-20010904/DTD/svg10.dtd">
<svg version="1.0" xmlns="http://www.w3.org/2000/svg"
 width="250.000000pt" height="250.000000pt" viewBox="0 0 250.000000 250.000000"
 preserveAspectRatio="xMidYMid meet">

<g transform="translate(0.000000,250.000000) scale(0.100000,-0.100000)"
fill="#000000" stroke="none">
<path d="M1026 2224 c-295 -53 -536 -265 -638 -559 -78 -227 -88 -508 -26
-753 12 -49 46 -134 78 -198 l56 -113 -102 -110 c-112 -120 -128 -142 -119
-171 10 -33 64 -70 100 -70 30 0 45 13 139 112 l105 113 28 -27 c75 -70 228
-143 364 -175 93 -21 337 -23 424 -4 280 62 487 226 601 478 105 229 128 559
58 832 -23 93 -83 234 -123 290 l-20 27 110 117 c122 130 129 149 80 198 -22
22 -39 29 -68 29 -35 0 -45 -7 -139 -107 l-102 -107 -42 37 c-48 41 -171 107
-245 133 -130 44 -362 56 -519 28z m369 -199 c33 -9 85 -27 115 -41 67 -31
162 -103 158 -120 -2 -7 -149 -170 -328 -361 -179 -191 -401 -430 -495 -530
-129 -138 -173 -179 -181 -170 -16 17 -50 113 -71 200 -28 112 -25 403 4 514
72 271 231 445 463 507 75 20 259 20 335 1z m423 -378 c67 -168 87 -369 57
-567 -31 -206 -90 -336 -205 -450 -126 -127 -243 -173 -435 -173 -75 -1 -131
5 -175 17 -129 35 -298 145 -275 179 6 8 213 230 460 493 248 263 467 497 489
521 21 24 44 42 50 40 6 -2 21 -29 34 -60z " fill="#cacaca"/>
</g>
</svg>
