<?xml version="1.0" standalone="no"?>
<!DOCTYPE svg PUBLIC "-//W3C//DTD SVG 20010904//EN"
 "http://www.w3.org/TR/2001/REC-SVG-20010904/DTD/svg10.dtd">
<svg version="1.0" xmlns="http://www.w3.org/2000/svg"
 width="96.000000pt" height="96.000000pt" viewBox="0 0 96.000000 96.000000"
 preserveAspectRatio="xMidYMid meet">

<g transform="translate(0.000000,96.000000) scale(0.100000,-0.100000)"
fill="#000000" stroke="none">
<path d="M502 826 c-87 -29 -143 -91 -162 -184 -11 -49 -13 -51 -47 -54 -70
-6 -67 -68 3 -68 32 0 34 -2 34 -34 0 -33 -2 -35 -36 -38 -69 -6 -69 -68 0
-68 31 0 32 -2 44 -60 16 -75 61 -135 127 -169 42 -22 63 -26 137 -26 70 0 91
3 105 18 14 13 15 21 7 35 -9 13 -30 18 -100 22 -62 4 -97 11 -116 24 -31 20
-68 90 -68 129 l0 26 96 3 c77 2 99 6 107 20 8 12 7 21 -2 32 -11 13 -34 16
-112 16 l-99 0 0 35 0 35 99 0 c78 0 101 3 112 16 9 11 10 20 2 32 -8 14 -30
18 -107 20 -92 3 -96 4 -96 25 0 13 10 43 23 67 31 62 71 80 174 80 74 0 82 2
88 21 5 13 1 27 -8 37 -22 21 -149 26 -205 8z" fill="#cacaca"/>
</g>
</svg>
