<?xml version="1.0" standalone="no"?>
<!DOCTYPE svg PUBLIC "-//W3C//DTD SVG 20010904//EN"
 "http://www.w3.org/TR/2001/REC-SVG-20010904/DTD/svg10.dtd">
<svg version="1.0" xmlns="http://www.w3.org/2000/svg"
 width="96.000000pt" height="96.000000pt" viewBox="0 0 96.000000 96.000000"
 preserveAspectRatio="xMidYMid meet">

<g transform="translate(0.000000,96.000000) scale(0.100000,-0.100000)"
fill="#000000" stroke="none">
<path d="M375 860 c-16 -17 -31 -20 -117 -20 l-98 0 0 -40 c0 -33 3 -40 20
-40 20 0 20 -7 20 -315 l0 -316 25 -24 c24 -25 27 -25 200 -25 l175 0 0 40 0
40 -160 0 -160 0 0 300 0 300 200 0 200 0 0 -200 0 -200 40 0 40 0 0 200 c0
193 1 200 20 200 17 0 20 7 20 40 l0 40 -98 0 c-86 0 -101 3 -117 20 -15 17
-31 20 -105 20 -74 0 -90 -3 -105 -20z" fill="#cacaca"/>
<path d="M360 460 l0 -220 40 0 40 0 0 220 0 220 -40 0 -40 0 0 -220z" fill="#cacaca"/>
<path d="M520 460 l0 -220 40 0 40 0 0 220 0 220 -40 0 -40 0 0 -220z" fill="#cacaca"/>
<path d="M687 253 l-27 -27 42 -43 42 -43 -42 -43 -42 -43 27 -27 27 -27 43
42 43 42 43 -42 43 -42 27 27 27 27 -42 43 -42 43 42 43 42 43 -27 27 -27 27
-43 -42 -43 -42 -43 42 -43 42 -27 -27z" fill="#cacaca"/>
</g>
</svg>
